PathFileType	4	(X/Y/Z)	/Users/niels/Desktop/University/Third Semester/Perception and Action/Exam/Gymnastics Motion Tracking/Code for Gym Tracking/Analyzed Data/Webcam_Backflip/id2001_1_baseline_Sports2D/id2001_1_baseline_Sports2D_px_person00.trc
DataRate	CameraRate	NumFrames	NumMarkers	Units	OrigDataRate	OrigDataStartFrame	OrigNumFrames
29.884169884169886	29.884169884169886	7	22	m	29.884169884169886	0	259
Frame#	Time	Hip			RHip			RKnee			RAnkle			RBigToe			RSmallToe			RHeel			LHip			LKnee			LAnkle			LBigToe			LSmallToe			LHeel			Neck			Head			Nose			RShoulder			RElbow			RWrist			LShoulder			LElbow			LWrist		
		X1	Y1	Z1	X2	Y2	Z2	X3	Y3	Z3	X4	Y4	Z4	X5	Y5	Z5	X6	Y6	Z6	X7	Y7	Z7	X8	Y8	Z8	X9	Y9	Z9	X10	Y10	Z10	X11	Y11	Z11	X12	Y12	Z12	X13	Y13	Z13	X14	Y14	Z14	X15	Y15	Z15	X16	Y16	Z16	X17	Y17	Z17	X18	Y18	Z18	X19	Y19	Z19	X20	Y20	Z20	X21	Y21	Z21	X22	Y22	Z22
0	0.0	0.9736013245574939	-0.7457782865667462	0.0	0.9840068721533141	-0.7483789647982465	0.0	1.1347949367673889	-1.0551887424491315	0.0	1.1567265565341671	-1.0355976556425284	0.0	0.6658945311973858	-1.0007929687522075	0.0	0.5414999999827436	-1.0045625000074645	0.0	0.5414999999913123	-0.9517890624986756	0.0	0.9345525228778333	-0.7535706066428248	0.0	0.9579731583855027	-1.0655889979736484	0.0	1.0670976515209682	-1.0287031244751976	0.0	0.541500000010119	-0.9932539062527708	0.0	0.6470468749895147	-1.0083320312462882	0.0	0.6395078124949762	-0.9593281249926282	0.0	1.0048019064536777	-0.26215733062583	0.0	1.0698260173902672	-0.08013407478901977	0.0	1.075027582548161	-0.1763628013959247	0.0	0.950209113609458	-0.2907438620237649	0.0	0.9085975061710951	-0.511737638195551	0.0	1.0567112896684594	-0.7327447444151887	0.0	1.038588315607046	-0.327139557381708	0.0	1.0255848490759185	-0.5403488927957624	0.0	1.093196288159802	-0.7405935888502329	0.0
1	0.0334625322997416	0.9776320340774132	-0.739971400173151	0.0	0.9846473436415563	-0.742701776425537	0.0	1.1181695470984856	-1.0580757250169275	0.0	1.1567265554803565	-1.0355976555540152	0.0	0.665894530958741	-1.000792968759911	0.0	0.5414999998999758	-1.0045625000432699	0.0	0.5414999998944453	-0.9517890624953919	0.0	0.9472427375278384	-0.7482600702689912	0.0	0.9579572287898176	-1.0649621146780872	0.0	1.0670976506870586	-1.0287031243915306	0.0	0.541500000055594	-0.9932539062674073	0.0	0.6470468749350706	-1.0083320312367556	0.0	0.6395078124683119	-0.959328124960273	0.0	1.0041897519749565	-0.26380524370492997	0.0	1.0654396708745788	-0.08211585467409947	0.0	1.074219919491432	-0.17839170602691887	0.0	0.9514790450103529	-0.2920974962492472	0.0	0.9328451011435667	-0.511019807018808	0.0	1.097380013732375	-0.7169065282860222	0.0	1.0412147353305157	-0.32860278630204137	0.0	1.034968713632563	-0.5430559050340082	0.0	1.102739541044264	-0.7405523396205427	0.0
2	0.0669250645994832	0.9806269985329462	-0.735214610994107	0.0	0.9847605551101178	-0.7382575346139412	0.0	1.102386323603397	-1.0609210200456043	0.0	1.156726557515807	-1.035597655794514	0.0	0.6658945305710072	-1.0007929687720947	0.0	0.5414999997648524	-1.0045625001017244	0.0	0.5414999997287822	-0.9517890624904491	0.0	0.95928823103939	-0.7441321495474928	0.0	0.9580898748440132	-1.0647669935664164	0.0	1.0670976523030635	-1.0287031245865654	0.0	0.5415000001294177	-0.9932539062914858	0.0	0.6470468748456214	-1.0083320312223203	0.0	0.6395078124244304	-0.9593281249078603	0.0	1.0037520736463739	-0.26539705792958934	0.0	1.0614560466666292	-0.08380676044281032	0.0	1.0736782874541524	-0.18036217122751877	0.0	0.9531496830371179	-0.2933274824093878	0.0	0.9576024215832614	-0.5099038793335143	0.0	1.1381985818843838	-0.7001132045980155	0.0	1.0425162682568223	-0.3298531192629292	0.0	1.0424893264083652	-0.5475084716339514	0.0	1.110606304894494	-0.7429618439941518	0.0
3	0.1003875968992248	0.9819441571473555	-0.7322037370624064	0.0	0.9840179400896972	-0.7357436140968033	0.0	1.088056397873688	-1.0636583506931057	0.0	1.156726565704464	-1.0355976566748364	0.0	0.6658945300755459	-1.0007929687871673	0.0	0.5414999995912203	-1.0045625001768386	0.0	0.541499999504745	-0.9517890624847182	0.0	0.9698196446153602	-0.7417824718211691	0.0	0.9585658029342972	-1.0651164360146865	0.0	1.06709765879764	-1.0287031253292667	0.0	0.5415000002236618	-0.9932539063226987	0.0	0.6470468747298401	-1.0083320312054433	0.0	0.6395078123675234	-0.9593281248411178	0.0	1.0036119167734303	-0.26677919147420887	0.0	1.0581525636732005	-0.08506309234819927	0.0	1.0734771503583997	-0.18214759942018147	0.0	0.955581438775909	-0.2943604508333691	0.0	0.98312996020025	-0.5077893372505996	0.0	1.1789343673724066	-0.6816644241014406	0.0	1.041653890765616	-0.33064147125427995	0.0	1.046984019575601	-0.5543731906113435	0.0	1.1159480753805393	-0.7483268053248651	0.0
4	0.1338501291989664	0.9815815696116319	-0.731151236711716	0.0	0.9824273173890652	-0.7351744746887636	0.0	1.0757079111735999	-1.0661805724910949	0.0	1.156726583446704	-1.035597658529705	0.0	0.6658945296429679	-1.0007929687993866	0.0	0.5414999994377937	-1.0045625002432128	0.0	0.541499999285737	-0.9517890624808236	0.0	0.9777787251062535	-0.7411108780638367	0.0	0.9595191394541615	-1.0658423649249824	0.0	1.0670976728653407	-1.028703126913219	0.0	0.5415000003057727	-0.9932539063507926	0.0	0.647046874625949	-1.008332031193683	0.0	0.6395078123162588	-0.9593281247832869	0.0	1.0037379055052171	-0.26769419996315313	0.0	1.0557183057342445	-0.08592766101624845	0.0	1.0735725108398664	-0.1835623476169833	0.0	0.95889589473055	-0.29520019116095425	0.0	1.0089967431204026	-0.5041487612362843	0.0	1.2188312721840162	-0.6615546080586537	0.0	1.0383373932166027	-0.33072038583716523	0.0	1.0480220136959475	-0.5629975194748428	0.0	1.119015910941772	-0.7547107057942909	0.0
5	0.16731266149870802	0.9801277767127049	-0.7318685598594118	0.0	0.9801777322876383	-0.7361127961173709	0.0	1.0656541553962806	-1.0683108710189226	0.0	1.156726612735295	-1.035597661532979	0.0	0.6658945296454708	-1.0007929687967065	0.0	0.5414999994335992	-1.0045625002450305	0.0	0.5414999992220627	-0.9517890624839235	0.0	0.9826480572354558	-0.741665152202373	0.0	0.9611310050626449	-1.0666948897075135	0.0	1.0670976960835923	-1.0287031294997533	0.0	0.5415000003048206	-0.9932539063529675	0.0	0.6470468746187681	-1.0083320312020048	0.0	0.6395078123121708	-0.9593281247848441	0.0	1.003995415376127	-0.2679196682119079	0.0	1.0543161206326113	-0.08652687212575638	0.0	1.0740178792290573	-0.18445204310069124	0.0	0.9628606065678691	-0.2958596998170163	0.0	1.0342138123667328	-0.498787840860787	0.0	1.2568260376783391	-0.640379424524956	0.0	1.0327930284665738	-0.3300500343650413	0.0	1.0459883292245318	-0.5720000387473032	0.0	1.1207353205387571	-0.7593683296381512	0.0
6	0.2007751937984496	0.9784108930903519	-0.7339039327318319	0.0	0.9774298959880006	-0.7380205035756372	0.0	1.0576337441199437	-1.0698603650605951	0.0	1.1567266508505756	-1.0355976653551897	0.0	0.6658945307003086	-1.000792968759685	0.0	0.5414999997936568	-1.0045625000892735	0.0	0.5414999995762998	-0.9517890625019407	0.0	0.9852698612676926	-0.743016112012783	0.0	0.9638307478514083	-1.0674806530851895	0.0	1.067097726292555	-1.0287031328243672	0.0	0.5415000001032729	-0.9932539062909331	0.0	0.6470468748505586	-1.0083320312535355	0.0	0.6395078124250391	-0.9593281249292497	0.0	1.0043283091568047	-0.2674089740916423	0.0	1.0540181623162923	-0.08690239802418331	0.0	1.0749657658465084	-0.18476711528138604	0.0	0.9670577628223954	-0.2962659644715074	0.0	1.0577672345259619	-0.4918038132619737	0.0	1.2916575567119932	-0.6188887234370095	0.0	1.0257558318074325	-0.3288943378069897	0.0	1.0422025588400952	-0.5800367703381168	0.0	1.1220398689052102	-0.7608802047922001	0.0
